# xmcd CD database file
#
# Track frame offsets:
#	150
#	11042
#	26707
#	43930
#
# Disc length: 866 seconds
#
# Revision: 1
# Processed by: cddbd v1.5.2PL0 Copyright (c) Steve Scherf et al.
# Submitted via: CDex 1.51
#
DISCID=2e036004
DTITLE=Heron - Heron (Bonus Single CD)
DYEAR=1971
DGENRE=Folk-Rock
TTITLE0=Bye and Bye
TTITLE1=Through Time
TTITLE2=Only A Hobo
TTITLE3=I'm Ready To Leave
EXTD=YEAR: 1971
EXTT0=
EXTT1=
EXTT2=
EXTT3=
PLAYORDER=
